<?xml version="1.0" encoding="UTF-8"?>
<!DOCTYPE svg PUBLIC "-//W3C//DTD SVG 1.1//EN" "http://www.w3.org/Graphics/SVG/1.1/DTD/svg11.dtd">
<svg xmlns="http://www.w3.org/2000/svg" version="1.1" width="512px" height="512px" style="shape-rendering:geometricPrecision; text-rendering:geometricPrecision; image-rendering:optimizeQuality; fill-rule:evenodd; clip-rule:evenodd" xmlns:xlink="http://www.w3.org/1999/xlink">
<g><path style="opacity:0.975" fill="#000000" d="M 114.5,40.5 C 146.947,37.6528 173.447,48.6528 194,73.5C 222.767,63.6208 252.267,60.7874 282.5,65C 294.318,66.663 305.818,69.4963 317,73.5C 337.537,48.4932 364.037,37.6598 396.5,41C 437.667,48.8333 462.167,73.3333 470,114.5C 473.34,146.963 462.507,173.463 437.5,194C 458.5,261.992 447,323.825 403,379.5C 394.498,388.502 385.665,397.168 376.5,405.5C 385.992,423.636 394.658,441.803 402.5,460C 390.062,466.303 377.562,472.469 365,478.5C 355.836,462.176 347.17,445.509 339,428.5C 298.556,447.809 256.389,452.642 212.5,443C 198.994,439.498 185.827,434.998 173,429.5C 164.17,445.158 155.837,461.158 148,477.5C 147.439,478.022 146.772,478.355 146,478.5C 133.772,472.636 121.605,466.636 109.5,460.5C 108.386,459.277 108.219,457.944 109,456.5C 117.5,439.5 126,422.5 134.5,405.5C 78.2444,356.929 55.4111,295.596 66,221.5C 67.8046,212.112 70.3046,202.946 73.5,194C 46.6204,171.709 36.1204,143.209 42,108.5C 51.8765,70.4531 76.0431,47.7864 114.5,40.5 Z M 120.5,85.5 C 131.685,84.1279 141.685,86.7945 150.5,93.5C 134.967,104.527 120.801,117.193 108,131.5C 103.155,137.872 98.3219,144.205 93.5,150.5C 81.0735,130.275 83.4068,111.775 100.5,95C 106.601,90.4477 113.268,87.281 120.5,85.5 Z M 376.5,85.5 C 405.582,84.4231 421.916,98.2564 425.5,127C 425.584,135.413 423.251,143.08 418.5,150C 417.551,150.617 416.718,150.451 416,149.5C 401.167,126.667 382.333,107.833 359.5,93C 364.872,89.6071 370.538,87.1071 376.5,85.5 Z M 245.5,106.5 C 300.299,105.235 344.132,126.235 377,169.5C 412.064,223.995 413.397,279.329 381,335.5C 344.12,388.011 293.62,410.177 229.5,402C 166.046,387.879 126.213,349.379 110,286.5C 99.6169,223.616 119.45,172.783 169.5,134C 192.475,118.176 217.809,109.009 245.5,106.5 Z"/></g>
<g><path style="opacity:0.961" fill="#000000" d="M 233.5,148.5 C 248.167,148.5 262.833,148.5 277.5,148.5C 277.333,181.168 277.5,213.835 278,246.5C 297.167,265.667 316.333,284.833 335.5,304C 325,314.5 314.5,325 304,335.5C 280.667,312.167 257.333,288.833 234,265.5C 233.5,226.501 233.333,187.501 233.5,148.5 Z"/></g>
</svg>
